<svg width="16" height="16" viewBox="0 0 16 16" fill="none" xmlns="http://www.w3.org/2000/svg">
<path d="M3.4152 3.36074C3.39398 3.16976 3.56374 3 3.77594 3L12.646 3C12.8582 3 13.0067 3.14854 13.0067 3.36074V12.2308C13.0067 12.443 12.8369 12.6127 12.646 12.5915L11.8184 12.6127C11.6062 12.6127 11.4364 12.443 11.4576 12.252L11.4364 5.65252L4.20034 12.8886C4.0518 13.0371 3.8396 13.0371 3.69106 12.8886L3.09689 12.2944C2.96957 12.1671 2.94835 11.9337 3.09689 11.7851L10.333 4.54907H3.75472C3.56374 4.57029 3.39398 4.40053 3.39398 4.18833L3.4152 3.36074Z" fill="#21214D"/>
</svg>
