<svg width="16" height="16" viewBox="0 0 16 16" fill="none" xmlns="http://www.w3.org/2000/svg">
<path d="M12.6392 3.41519C12.8302 3.39397 13 3.56373 13 3.77593L13 12.646C13 12.8582 12.8515 13.0067 12.6392 13.0067L3.76922 13.0067C3.55702 13.0067 3.38726 12.8369 3.40848 12.646L3.38726 11.8184C3.38726 11.6062 3.55702 11.4364 3.748 11.4576L10.3475 11.4364L3.1114 4.20033C2.96286 4.05179 2.96286 3.83959 3.1114 3.69105L3.70556 3.09689C3.83288 2.96957 4.06631 2.94835 4.21485 3.09689L11.4509 10.333L11.4509 3.75471C11.4297 3.56373 11.5995 3.39397 11.8117 3.39397L12.6392 3.41519Z" fill="#21214D"/>
</svg>
