<svg width="16" height="16" viewBox="0 0 16 16" fill="none" xmlns="http://www.w3.org/2000/svg">
<path d="M14.3451 7.37033C14.3774 7.79011 14.3774 8.20989 14.3451 8.59738L15.3784 9.2109C15.669 9.37235 15.8305 9.72755 15.7336 10.0827C15.3784 11.439 14.6357 12.666 13.667 13.667C13.4087 13.893 13.0212 13.9576 12.7306 13.7962L11.6973 13.1826C11.439 13.3764 10.9546 13.667 10.6317 13.7962V14.9909C10.6317 15.3461 10.4057 15.6367 10.0505 15.7336C8.72655 16.0888 7.27348 16.0888 5.94956 15.7336C5.62666 15.669 5.36833 15.3138 5.36833 14.9909V13.7962C5.04542 13.667 4.56107 13.3764 4.30274 13.1826L3.26944 13.7962C2.97883 13.9576 2.59134 13.893 2.33301 13.667C1.36429 12.666 0.62161 11.439 0.266414 10.0827C0.169542 9.72755 0.330995 9.37235 0.62161 9.2109L1.65491 8.59738C1.62262 8.43592 1.62262 8.1776 1.62262 7.98385C1.62262 7.8224 1.62262 7.56408 1.65491 7.37033L0.62161 6.7891C0.330995 6.62765 0.169542 6.27245 0.266414 5.91726C0.62161 4.56105 1.36429 3.33401 2.33301 2.333C2.59134 2.10696 2.97883 2.04238 3.26944 2.20383L4.30274 2.81736C4.56107 2.62361 5.04542 2.333 5.36833 2.20383V1.00908C5.36833 0.653885 5.59437 0.363269 5.94956 0.266398C7.27348 -0.0887992 8.72655 -0.0887992 10.0505 0.266398C10.3734 0.330979 10.6317 0.686176 10.6317 1.00908V2.20383C10.9546 2.333 11.439 2.62361 11.6973 2.81736L12.7306 2.20383C13.0212 2.04238 13.4087 2.10696 13.667 2.333C14.6357 3.33401 15.3784 4.56105 15.7336 5.91726C15.8305 6.27245 15.669 6.62765 15.3784 6.7891L14.3451 7.37033ZM12.6337 9.43693C12.892 8.08073 12.892 7.91927 12.6337 6.56307L14.0545 5.7558C13.8608 5.17457 13.3441 4.33501 12.9566 3.88295L11.5358 4.69021C10.5348 3.81837 10.3734 3.72149 9.08175 3.26942V1.6226C8.79114 1.59031 8.30678 1.52573 8.01616 1.52573C7.69325 1.52573 7.2089 1.59031 6.91828 1.6226V3.26942C5.62666 3.72149 5.49749 3.81837 4.46419 4.69021L3.04341 3.88295C2.55905 4.43189 2.20385 5.0777 1.94553 5.7558L3.36631 6.56307C3.10799 7.91927 3.10799 8.08073 3.36631 9.43693L1.94553 10.2442C2.13927 10.8254 2.65592 11.665 3.04341 12.1171L4.46419 11.3098C5.4652 12.1816 5.62666 12.2785 6.91828 12.7306V14.3774C7.2089 14.4097 7.69325 14.4743 8.01616 14.4743C8.30678 14.4743 8.79114 14.4097 9.08175 14.3774V12.7306C10.3734 12.2785 10.5025 12.1816 11.5358 11.3098L12.9566 12.1171C13.3441 11.665 13.8608 10.8254 14.0545 10.2442L12.6337 9.43693ZM8.01616 4.88396C9.69527 4.88396 11.1161 6.30474 11.1161 7.98385C11.1161 9.69526 9.69527 11.0838 8.01616 11.0838C6.30476 11.0838 4.91626 9.69526 4.91626 7.98385C4.91626 6.30474 6.30476 4.88396 8.01616 4.88396ZM8.01616 9.5338C8.85572 9.5338 9.56611 8.8557 9.56611 7.98385C9.56611 7.1443 8.85572 6.43391 8.01616 6.43391C7.14431 6.43391 6.46621 7.1443 6.46621 7.98385C6.46621 8.8557 7.14431 9.5338 8.01616 9.5338Z" fill="#21214D"/>
</svg>
