<svg width="16" height="16" viewBox="0 0 16 16" fill="none" xmlns="http://www.w3.org/2000/svg">
<path d="M14.5 8C15.3125 8 16 8.6875 16 9.5V13.5C16 14.3438 15.3125 15 14.5 15H10.5C9.65625 15 9 14.3438 9 13.5V6C9 3.25 11.2188 1 14 1H14.25C14.6562 1 15 1.34375 15 1.75V3.25C15 3.6875 14.6562 4 14.25 4H14C12.875 4 12 4.90625 12 6V8H14.5ZM5.5 8C6.3125 8 7 8.6875 7 9.5V13.5C7 14.3438 6.3125 15 5.5 15H1.5C0.65625 15 0 14.3438 0 13.5V6C0 3.25 2.21875 1 5 1H5.25C5.65625 1 6 1.34375 6 1.75V3.25C6 3.6875 5.65625 4 5.25 4H5C3.875 4 3 4.90625 3 6V8H5.5Z" fill="#4865DB"/>
</svg>
