<svg width="16" height="16" viewBox="0 0 16 16" fill="none" xmlns="http://www.w3.org/2000/svg">
<path d="M8.10292 2.68388C8.04051 2.65267 8.0093 2.59026 8.0093 2.52784C8.0093 2.43422 8.04051 2.3718 8.10292 2.34059L9.66332 1.68523L10.3187 0.124832C10.3499 0.0624159 10.4123 0 10.5059 0C10.5683 0 10.6308 0.0624159 10.662 0.124832L11.3173 1.68523L12.8777 2.34059C12.9402 2.3718 12.9714 2.43422 12.9714 2.52784C12.9714 2.59026 12.9402 2.65267 12.8777 2.68388L11.3173 3.33925L10.662 4.89964C10.6308 4.96206 10.5683 5.02448 10.5059 5.02448C10.4123 5.02448 10.3499 4.96206 10.3187 4.89964L9.66332 3.33925L8.10292 2.68388ZM11.3798 8.36372C11.9727 8.42614 12.1912 9.17513 11.7855 9.58083L9.41365 11.8902L9.9754 15.1671C9.9754 15.1983 9.9754 15.2295 9.9754 15.2607C9.9754 15.6664 9.66332 15.9785 9.25762 15.9785C9.16399 15.9785 9.00795 15.9473 8.91433 15.916L5.98078 14.3556L3.07844 15.916C2.54791 16.1969 1.92375 15.7288 2.01737 15.1671L2.57912 11.8902L0.207315 9.58083C-0.198388 9.17513 0.0200672 8.42614 0.613018 8.36372L3.88985 7.8644L5.35662 4.89964C5.60629 4.36911 6.38649 4.36911 6.63615 4.89964L8.10292 7.8644L11.3798 8.36372ZM15.9049 6.86574C15.9361 6.89695 15.9985 6.95937 15.9985 6.99058C15.9985 7.05299 15.9361 7.11541 15.9049 7.14662L14.6566 7.67715L14.1261 8.92547C14.0948 8.95668 14.0324 8.98788 14.0012 8.98788C13.9388 8.98788 13.8764 8.95668 13.8452 8.92547L13.3146 7.67715L12.0663 7.14662C12.0351 7.11541 12.0039 7.05299 12.0039 6.99058C12.0039 6.95937 12.0351 6.89695 12.0663 6.86574L13.3146 6.33521L13.8452 5.08689C13.8764 5.05568 13.9388 5.02448 14.0012 5.02448C14.0324 5.02448 14.0948 5.05568 14.1261 5.08689L14.6566 6.33521L15.9049 6.86574Z" fill="#57577B"/>
</svg>
