<svg width="16" height="16" viewBox="0 0 16 16" fill="none" xmlns="http://www.w3.org/2000/svg">
<path d="M10 0.90625C9.96875 1.125 9.875 1.4375 9.75 1.59375L7.15625 4.5H9C9.25 4.5 9.5 4.75 9.5 5V5.5C9.5 5.78125 9.25 6 9 6H5.5C5.21875 6 5 5.78125 5 5.5V5.09375C5 4.90625 5.09375 4.59375 5.21875 4.4375L7.8125 1.5H6C5.71875 1.5 5.5 1.28125 5.5 1V0.5C5.5 0.25 5.71875 0 6 0H9.5C9.75 0 10 0.25 10 0.5V0.90625ZM7.25 8C7.65625 8 8 8.34375 8 8.75V9.5625C7.96875 9.78125 7.84375 10.0938 7.6875 10.25L3.875 14H7.5C7.75 14 8 14.25 8 14.5V15.5C8 15.7812 7.75 16 7.5 16H1.75C1.3125 16 1 15.6875 1 15.25V14.4688C1 14.25 1.125 13.9375 1.28125 13.7812L5.09375 10H2C1.71875 10 1.5 9.78125 1.5 9.5V8.5C1.5 8.25 1.71875 8 2 8H7.25ZM14.5 7C14.75 7 15 7.25 15 7.5V7.90625C14.9688 8.125 14.875 8.4375 14.75 8.59375L12.1562 11.5H14C14.25 11.5 14.5 11.75 14.5 12V12.5C14.5 12.7812 14.25 13 14 13H10.5C10.2188 13 10 12.7812 10 12.5V12.0938C10 11.9062 10.0938 11.5938 10.2188 11.4375L12.8125 8.5H11C10.7188 8.5 10.5 8.28125 10.5 8V7.5C10.5 7.25 10.7188 7 11 7H14.5Z" fill="#21214D"/>
</svg>
